<?xml version="1.0" encoding="iso-8859-1"?>
<!-- Generator: Adobe Illustrator 19.0.0, SVG Export Plug-In . SVG Version: 6.00 Build 0)  -->
<svg version="1.1" id="Capa_1" xmlns="http://www.w3.org/2000/svg" xmlns:xlink="http://www.w3.org/1999/xlink" x="0px" y="0px"
	 viewBox="0 0 512.005 512.005" style="enable-background:new 0 0 512.005 512.005;" xml:space="preserve">
<g>
	<path style="fill:#F44336;" d="M461.818,355.712c-1.692-2.616-4.443-4.362-7.531-4.779c-40.621-5.306-69.25-42.537-63.945-83.158
		c3.748-28.694,23.84-52.588,51.465-61.205c5.61-1.798,8.701-7.803,6.903-13.413c-0.28-0.873-0.671-1.707-1.164-2.481
		c-18.641-33.642-51.786-56.779-89.792-62.677c-19.152,0.914-38.026,4.957-55.872,11.968c-12.817,5.158-26.351,8.317-40.128,9.365
		c-13.777-1.048-27.311-4.207-40.128-9.365c-17.846-7.011-36.72-11.054-55.872-11.968C125.924,128,48.42,184.469,48.42,288
		c0,98.389,71.765,224,128,224c21.457,0.192,42.656-4.691,61.867-14.251c7.235-3.99,15.232-6.404,23.467-7.083
		c8.234,0.679,16.232,3.093,23.467,7.083c19.211,9.56,40.41,14.443,61.867,14.251c44.587,0,94.912-76.544,115.989-147.477
		C463.961,361.543,463.501,358.325,461.818,355.712z"/>
	<path style="fill:#2196F3;" d="M251.087,128c64.772-0.071,117.263-52.561,117.333-117.333C368.42,4.776,363.645,0,357.754,0
		C292.982,0.071,240.491,52.561,240.42,117.333C240.42,123.224,245.196,128,251.087,128z"/>
</g>
<path d="M347.087,512c-21.457,0.191-42.655-4.692-61.867-14.251c-7.235-3.99-15.232-6.404-23.467-7.083
	c-8.234,0.679-16.232,3.093-23.467,7.083c-19.211,9.558-40.41,14.441-61.867,14.251c-56.235,0-128-125.611-128-224
	c0-103.531,77.419-160,117.333-160c19.145,0.913,38.012,4.956,55.851,11.968c12.824,5.16,26.366,8.318,40.149,9.365
	c13.784-1.047,27.325-4.206,40.149-9.365c17.839-7.012,36.705-11.055,55.851-11.968c38.01,5.903,71.156,29.048,89.792,62.699
	c3.164,4.969,1.702,11.562-3.267,14.727c-0.777,0.495-1.615,0.887-2.493,1.167c-39.094,12.242-60.862,53.858-48.62,92.953
	c8.641,27.596,32.532,47.654,61.207,51.388c5.836,0.804,9.915,6.186,9.112,12.022c-0.074,0.537-0.189,1.069-0.344,1.589
	C442.042,435.456,391.695,512,347.087,512z M261.754,469.333c11.273,0.547,22.284,3.592,32.235,8.917
	c16.462,8.297,34.664,12.553,53.099,12.416c25.259,0,68.523-51.093,92.011-121.109c-50.908-13.631-81.127-65.95-67.496-116.858
	c7.155-26.722,25.554-49.023,50.429-61.126c-14.853-22.172-38.032-37.405-64.277-42.24c-16.833,0.961-33.4,4.628-49.067,10.859
	c-14.977,5.999-30.826,9.536-46.933,10.475c-16.107-0.938-31.956-4.476-46.933-10.475c-15.666-6.231-32.234-9.898-49.067-10.859
	c-28.715,0-96,47.168-96,138.667c0,95.296,69.589,202.667,106.667,202.667c18.434,0.137,36.636-4.12,53.099-12.416
	C239.47,472.926,250.481,469.88,261.754,469.333z"/>
<path d="M251.087,128c-5.891,0-10.667-4.776-10.667-10.667C240.503,52.566,292.986,0.082,357.754,0
	c5.891,0,10.667,4.776,10.667,10.667C368.338,75.434,315.854,127.918,251.087,128z M346.426,21.995
	c-44.034,5.279-78.752,39.979-84.053,84.011C306.407,100.727,341.125,66.026,346.426,21.995z"/>
<g>
</g>
<g>
</g>
<g>
</g>
<g>
</g>
<g>
</g>
<g>
</g>
<g>
</g>
<g>
</g>
<g>
</g>
<g>
</g>
<g>
</g>
<g>
</g>
<g>
</g>
<g>
</g>
<g>
</g>
</svg>
