<?xml version="1.0" encoding="iso-8859-1"?>
<!-- Generator: Adobe Illustrator 19.0.0, SVG Export Plug-In . SVG Version: 6.00 Build 0)  -->
<svg version="1.1" id="Capa_1" xmlns="http://www.w3.org/2000/svg" xmlns:xlink="http://www.w3.org/1999/xlink" x="0px" y="0px"
	 viewBox="0 0 512.001 512.001" style="enable-background:new 0 0 512.001 512.001;" xml:space="preserve">
<path style="fill:#F44336;" d="M201.302,49.761L9.302,74.7C3.949,75.391-0.044,79.97,0,85.367V234.7
	c0,5.891,4.776,10.667,10.667,10.667h192c5.891,0,10.667-4.776,10.667-10.667V60.321c-0.004-3.064-1.325-5.978-3.627-8
	C207.388,50.327,204.339,49.398,201.302,49.761z"/>
<path style="fill:#4CAF50;" d="M508.374,13.367c-2.286-2.06-5.35-3.032-8.405-2.667l-256,33.387
	c-5.352,0.691-9.346,5.27-9.301,10.667V234.7c0,5.891,4.776,10.667,10.667,10.667h256c5.891,0,10.667-4.776,10.667-10.667V21.367
	C511.997,18.303,510.675,15.389,508.374,13.367z"/>
<path style="fill:#2196F3;" d="M202.667,266.7h-192C4.776,266.7,0,271.476,0,277.367V426.7c-0.044,5.397,3.949,9.976,9.301,10.667
	l192,25.045c0.455,0.031,0.911,0.031,1.365,0c5.891,0,10.667-4.776,10.667-10.667V277.367
	C213.334,271.476,208.558,266.7,202.667,266.7z"/>
<path style="fill:#FFC107;" d="M501.334,266.7h-256c-5.891,0-10.667,4.776-10.667,10.667v179.947
	c-0.044,5.397,3.949,9.976,9.301,10.667l256,33.387c0.455,0.031,0.911,0.031,1.365,0c5.891,0,10.667-4.776,10.667-10.667v0V277.367
	C512,271.476,507.225,266.7,501.334,266.7z"/>
<path d="M202.667,245.367h-192C4.776,245.367,0,240.591,0,234.7V85.367C-0.044,79.97,3.949,75.391,9.302,74.7l192-25.045
	c5.843-0.754,11.19,3.371,11.945,9.213c0.062,0.482,0.091,0.968,0.087,1.453V234.7C213.334,240.591,208.558,245.367,202.667,245.367
	z M21.334,224.033H192V72.567L21.334,94.732V224.033z"/>
<path d="M501.334,245.367h-256c-5.891,0-10.667-4.776-10.667-10.667V54.753c-0.044-5.397,3.949-9.976,9.301-10.667l256-33.387
	c5.843-0.754,11.19,3.371,11.945,9.213c0.062,0.482,0.091,0.968,0.087,1.453V234.7C512,240.591,507.225,245.367,501.334,245.367z
	 M256,224.033h234.667V33.505L256,64.033V224.033z"/>
<path d="M202.667,462.412c-0.455,0.031-0.911,0.031-1.365,0l-192-25.045C3.949,436.676-0.044,432.097,0,426.7V277.367
	c0-5.891,4.776-10.667,10.667-10.667h192c5.891,0,10.667,4.776,10.667,10.667v174.379
	C213.334,457.636,208.558,462.412,202.667,462.412z M21.334,417.335L192,439.5V288.033H21.334V417.335z"/>
<path d="M501.334,501.367c-0.455,0.031-0.911,0.031-1.365,0l-256-33.387c-5.352-0.691-9.346-5.27-9.301-10.667V277.367
	c0-5.891,4.776-10.667,10.667-10.667h256c5.891,0,10.667,4.776,10.667,10.667V490.7C512,496.591,507.225,501.367,501.334,501.367z
	 M256,448.033l234.667,30.635V288.033H256V448.033z"/>
<g>
</g>
<g>
</g>
<g>
</g>
<g>
</g>
<g>
</g>
<g>
</g>
<g>
</g>
<g>
</g>
<g>
</g>
<g>
</g>
<g>
</g>
<g>
</g>
<g>
</g>
<g>
</g>
<g>
</g>
</svg>
